<svg width="18" height="18" viewBox="0 0 18 18" fill="none" xmlns="http://www.w3.org/2000/svg">
<path d="M9.06249 1.55209C13.176 1.55209 16.5104 4.88653 16.5104 9.00001C16.5104 13.1135 13.176 16.4479 9.06249 16.4479C7.79482 16.4498 6.54783 16.1267 5.44056 15.5095L5.2134 15.3769L2.95519 16.0413C2.83231 16.0775 2.7022 16.0817 2.57722 16.0535C2.45224 16.0254 2.33653 15.9658 2.24104 15.8804C2.14556 15.7949 2.07347 15.6866 2.03161 15.5655C1.98975 15.4444 1.97951 15.3146 2.00186 15.1885L2.02123 15.1073L2.68558 12.8491C1.98321 11.6882 1.61277 10.3569 1.61457 9.00001C1.61457 4.88653 4.949 1.55209 9.06249 1.55209ZM9.06249 3.04168C7.99567 3.04148 6.94836 3.32772 6.02994 3.87049C5.11152 4.41327 4.35567 5.19267 3.84132 6.1273C3.32697 7.06194 3.07299 8.11753 3.10591 9.18385C3.13882 10.2502 3.45742 11.2881 4.02844 12.1892C4.17591 12.4216 4.23922 12.7076 4.18931 12.9913L4.16027 13.1127L3.83181 14.2307L4.94975 13.9022C5.27224 13.8069 5.6074 13.865 5.87329 14.0341C6.65407 14.5284 7.53916 14.8344 8.45857 14.9278C9.37798 15.0212 10.3065 14.8995 11.1708 14.5722C12.035 14.245 12.8113 13.7212 13.4383 13.0422C14.0652 12.3633 14.5256 11.5478 14.7831 10.6602C15.0406 9.77268 15.0882 8.83741 14.9219 7.92833C14.7557 7.01926 14.3803 6.16131 13.8254 5.42231C13.2705 4.68331 12.5513 4.08352 11.7247 3.67034C10.898 3.25717 9.98663 3.04194 9.06249 3.04168ZM6.90408 5.41309C6.98654 5.37739 7.07687 5.36376 7.1662 5.37355C7.25552 5.38335 7.34076 5.41622 7.41352 5.46895C7.78889 5.74304 8.08681 6.11096 8.34302 6.46995L8.58656 6.82298L8.70052 6.99056C8.76627 7.0867 8.79854 7.20181 8.79234 7.31811C8.78615 7.43442 8.74184 7.54545 8.66626 7.63406L8.6104 7.69067L7.92221 8.20159C7.88909 8.22558 7.86578 8.26075 7.8566 8.3006C7.84743 8.34045 7.85301 8.38228 7.87231 8.41833C8.02872 8.70135 8.30503 9.12365 8.62231 9.44093C8.94034 9.75821 9.382 10.0531 9.68439 10.2267C9.74993 10.2639 9.82888 10.252 9.8825 10.2036L9.9108 10.1701L10.3584 9.48859C10.4406 9.37912 10.562 9.30572 10.6971 9.28378C10.8322 9.26184 10.9705 9.29307 11.0831 9.37092L11.4875 9.65319C11.8897 9.93994 12.2763 10.2483 12.5824 10.6393C12.6393 10.7126 12.6755 10.7999 12.6871 10.892C12.6988 10.9841 12.6855 11.0777 12.6487 11.1629C12.3537 11.8511 11.6067 12.4372 10.8306 12.4089L10.7122 12.4015L10.5699 12.3881C10.5431 12.3849 10.5163 12.3814 10.4895 12.3776L10.3122 12.3478C9.62406 12.2183 8.52102 11.828 7.37777 10.6855C6.23526 9.54222 5.84499 8.43918 5.71539 7.75099L5.6856 7.57373L5.66698 7.41882L5.6573 7.28848C5.65612 7.26987 5.65513 7.25125 5.65432 7.23262C5.62602 6.45506 6.21515 5.70803 6.90408 5.41309Z" fill="white"/>
</svg>
