<svg width="24" height="24" viewBox="0 0 24 24" fill="none" xmlns="http://www.w3.org/2000/svg">
<path d="M7.00042 7.00042C7.08002 6.92061 7.17459 6.8573 7.2787 6.8141C7.38281 6.77089 7.49443 6.74866 7.60714 6.74866C7.71986 6.74866 7.83148 6.77089 7.93559 6.8141C8.0397 6.8573 8.13427 6.92061 8.21387 7.00042L12.7489 11.5371L17.2839 7.00042C17.3636 6.92074 17.4582 6.85754 17.5623 6.81442C17.6664 6.7713 17.7779 6.74911 17.8906 6.74911C18.0033 6.74911 18.1149 6.7713 18.219 6.81442C18.3231 6.85754 18.4177 6.92074 18.4973 7.00042C18.577 7.0801 18.6402 7.17469 18.6833 7.27879C18.7265 7.38289 18.7487 7.49447 18.7487 7.60714C18.7487 7.71982 18.7265 7.8314 18.6833 7.9355C18.6402 8.0396 18.577 8.13419 18.4973 8.21387L13.9606 12.7489L18.4973 17.2839C18.577 17.3636 18.6402 17.4582 18.6833 17.5623C18.7265 17.6664 18.7487 17.7779 18.7487 17.8906C18.7487 18.0033 18.7265 18.1149 18.6833 18.219C18.6402 18.3231 18.577 18.4177 18.4973 18.4973C18.4177 18.577 18.3231 18.6402 18.219 18.6833C18.1149 18.7265 18.0033 18.7487 17.8906 18.7487C17.7779 18.7487 17.6664 18.7265 17.5623 18.6833C17.4582 18.6402 17.3636 18.577 17.2839 18.4973L12.7489 13.9606L8.21387 18.4973C8.13419 18.577 8.0396 18.6402 7.9355 18.6833C7.8314 18.7265 7.71982 18.7487 7.60714 18.7487C7.49447 18.7487 7.38289 18.7265 7.27879 18.6833C7.17469 18.6402 7.0801 18.577 7.00042 18.4973C6.92074 18.4177 6.85754 18.3231 6.81442 18.219C6.7713 18.1149 6.74911 18.0033 6.74911 17.8906C6.74911 17.7779 6.7713 17.6664 6.81442 17.5623C6.85754 17.4582 6.92074 17.3636 7.00042 17.2839L11.5371 12.7489L7.00042 8.21387C6.92061 8.13427 6.8573 8.0397 6.8141 7.93559C6.77089 7.83148 6.74866 7.71986 6.74866 7.60714C6.74866 7.49443 6.77089 7.38281 6.8141 7.2787C6.8573 7.17459 6.92061 7.08002 7.00042 7.00042Z" fill="black"/>
</svg>
