<svg width="17" height="17" viewBox="0 0 17 17" fill="none" xmlns="http://www.w3.org/2000/svg">
<path d="M8.49999 8.50001C8.88958 8.50001 9.2232 8.36117 9.50087 8.08351C9.77806 7.80631 9.91666 7.47292 9.91666 7.08334C9.91666 6.69376 9.77806 6.36013 9.50087 6.08246C9.2232 5.80527 8.88958 5.66667 8.49999 5.66667C8.11041 5.66667 7.77702 5.80527 7.49983 6.08246C7.22216 6.36013 7.08333 6.69376 7.08333 7.08334C7.08333 7.47292 7.22216 7.80631 7.49983 8.08351C7.77702 8.36117 8.11041 8.50001 8.49999 8.50001ZM8.49999 15.3177C8.40555 15.3177 8.31111 15.3 8.21666 15.2646C8.12222 15.2292 8.03958 15.182 7.96874 15.1229C6.24513 13.6 4.95833 12.1864 4.10833 10.8821C3.25833 9.57738 2.83333 8.35834 2.83333 7.22501C2.83333 5.45417 3.40306 4.04341 4.54254 2.99271C5.68154 1.94202 7.00069 1.41667 8.49999 1.41667C9.9993 1.41667 11.3185 1.94202 12.4575 2.99271C13.5969 4.04341 14.1667 5.45417 14.1667 7.22501C14.1667 8.35834 13.7417 9.57738 12.8917 10.8821C12.0417 12.1864 10.7549 13.6 9.03124 15.1229C8.96041 15.182 8.87777 15.2292 8.78333 15.2646C8.68888 15.3 8.59444 15.3177 8.49999 15.3177Z" fill="white"/>
</svg>
