<svg width="117" height="28" viewBox="0 0 117 28" fill="none" xmlns="http://www.w3.org/2000/svg">
<path d="M6.708 3.3328H17.1656L24.0112 27H15.9272L15.0328 22.4592H8.9096L7.912 27H0.172L6.708 3.3328ZM14.2072 18.228L11.9712 7.8736L9.632 18.228H14.2072ZM31.8275 27.2752C29.9011 27.2752 28.399 26.656 27.3211 25.4176C26.2433 24.1792 25.7043 22.4936 25.7043 20.3608V9.7656H32.9971V20.0512C32.9971 20.5787 33.1347 20.9915 33.4099 21.2896C33.7081 21.5648 34.0865 21.7024 34.5451 21.7024C35.0038 21.7024 35.4739 21.5648 35.9555 21.2896L36.3339 26.0712C35.8294 26.4611 35.1643 26.7592 34.3387 26.9656C33.5361 27.172 32.699 27.2752 31.8275 27.2752ZM29.3507 7.1856C28.2729 7.1856 27.3555 6.85306 26.5987 6.188C25.8649 5.5 25.4979 4.66293 25.4979 3.6768C25.4979 2.69066 25.8878 1.86506 26.6675 1.2C27.4473 0.53493 28.3417 0.202397 29.3507 0.202397C30.4057 0.202397 31.3115 0.546398 32.0683 1.2344C32.8481 1.9224 33.2379 2.73653 33.2379 3.6768C33.2379 4.68587 32.8481 5.52293 32.0683 6.188C31.2886 6.85306 30.3827 7.1856 29.3507 7.1856ZM38.3372 10.0064H45.5956V13.5152C46.1231 12.1621 46.834 11.1645 47.7284 10.5224C48.6457 9.85733 49.7121 9.5248 50.9276 9.5248L51.9252 15.132C49.7465 15.132 48.1412 15.3728 47.1092 15.8544C46.1001 16.3131 45.5956 17.0469 45.5956 18.056V27H38.3372V10.0064Z" fill="#38618C"/>
<path d="M54.2055 3.3328H61.3607L67.2775 14.8224L73.0567 3.3328H80.2119V27H73.0567V14.3752L68.6879 22.6312H65.7639L61.3607 14.3752V27H54.2055V3.3328ZM92.9343 27.2752C91.0308 27.2752 89.3338 26.8968 87.8431 26.14C86.3754 25.3603 85.2287 24.3053 84.4031 22.9752C83.5775 21.6221 83.1647 20.0971 83.1647 18.4C83.1647 16.6571 83.589 15.1091 84.4375 13.756C85.286 12.4029 86.4327 11.3595 87.8775 10.6256C89.3223 9.89173 90.9276 9.5248 92.6935 9.5248C94.3906 9.5248 95.8354 9.9032 97.0279 10.66C98.2434 11.3939 99.1492 12.4029 99.7455 13.6872C100.342 14.9485 100.64 16.3704 100.64 17.9528C100.64 18.3656 100.617 18.6637 100.571 18.8472L90.2511 20.1888C90.5263 20.9915 90.9735 21.5763 91.5927 21.9432C92.2119 22.2872 93.026 22.4592 94.0351 22.4592C95.5946 22.4592 97.2802 22.0579 99.0919 21.2552L99.9519 25.8648C97.8191 26.8051 95.4799 27.2752 92.9343 27.2752ZM95.3079 15.8544C94.941 14.4096 94.0695 13.6872 92.6935 13.6872C91.8679 13.6872 91.2143 13.9968 90.7327 14.616C90.2511 15.2352 89.9988 16.0379 89.9759 17.024L95.3079 15.8544ZM111.636 27.2752C109.802 27.2752 108.173 26.9083 106.752 26.1744C105.353 25.4176 104.252 24.3627 103.449 23.0096C102.669 21.6565 102.28 20.12 102.28 18.4C102.28 16.7488 102.692 15.2467 103.518 13.8936C104.344 12.5405 105.467 11.4741 106.889 10.6944C108.311 9.91467 109.893 9.5248 111.636 9.5248C113.861 9.5248 115.615 9.98347 116.9 10.9008L116.246 15.476C114.939 15.0861 113.861 14.8912 113.012 14.8912C111.912 14.8912 111.04 15.2123 110.398 15.8544C109.756 16.4736 109.435 17.3221 109.435 18.4C109.435 19.4779 109.756 20.3379 110.398 20.98C111.04 21.6221 111.889 21.9432 112.944 21.9432C113.861 21.9432 114.939 21.7483 116.177 21.3584L116.831 26.1744C116.051 26.5643 115.26 26.8395 114.457 27C113.654 27.1835 112.714 27.2752 111.636 27.2752Z" fill="#DE3C4B"/>
</svg>
